<!--?xml version="1.0" standalone="no"?-->
              <svg id="sw-js-blob-svg" viewBox="0 0 100 100" xmlns="http://www.w3.org/2000/svg" version="1.1">
                    <defs> 
                        <linearGradient id="sw-gradient" x1="0" x2="1" y1="1" y2="0">
                            <stop id="stop1" stop-color="rgba(174, 210, 255, 1)" offset="0%"></stop>
                            <stop id="stop2" stop-color="rgba(228, 241, 255, 1)" offset="100%"></stop>
                        </linearGradient>
                    </defs>
                    <mask id="mask" mask-type="alpha">
                    <path fill="url(#sw-gradient)" d="M19.2,-33.4C25.3,-29.8,30.8,-25.4,35.3,-19.7C39.8,-14,43.1,-7,42.5,-0.4C41.9,6.3,37.2,12.5,32.7,18.1C28.1,23.7,23.7,28.5,18.3,33.7C12.8,38.8,6.4,44.4,-0.1,44.6C-6.6,44.8,-13.3,39.6,-19,34.7C-24.8,29.7,-29.7,24.8,-34.3,19.1C-38.9,13.3,-43.2,6.6,-44.3,-0.7C-45.5,-8,-43.6,-16,-39.3,-22.4C-35.1,-28.8,-28.6,-33.6,-21.7,-36.7C-14.8,-39.9,-7.4,-41.4,-0.4,-40.7C6.6,-40,13.2,-37.1,19.2,-33.4Z" width="100%" height="100%" transform="translate(50 50)" style="transition: all 0.3s ease 0s;" stroke-width="0"></path>
                    </mask>
                    <g mask="url(#mask)">
                <path fill="url(#sw-gradient)" d="M19.2,-33.4C25.3,-29.8,30.8,-25.4,35.3,-19.7C39.8,-14,43.1,-7,42.5,-0.4C41.9,6.3,37.2,12.5,32.7,18.1C28.1,23.7,23.7,28.5,18.3,33.7C12.8,38.8,6.4,44.4,-0.1,44.6C-6.6,44.8,-13.3,39.6,-19,34.7C-24.8,29.7,-29.7,24.8,-34.3,19.1C-38.9,13.3,-43.2,6.6,-44.3,-0.7C-45.5,-8,-43.6,-16,-39.3,-22.4C-35.1,-28.8,-28.6,-33.6,-21.7,-36.7C-14.8,-39.9,-7.4,-41.4,-0.4,-40.7C6.6,-40,13.2,-37.1,19.2,-33.4Z" width="100%" height="100%" transform="translate(50 50)" style="transition: all 0.3s ease 0s;" stroke-width="0"></path>
                <image href="../img/about_bg.png" x="10" y="10" width="80" height="80"/>

                    </g>

              </svg>