<?xml version="1.0" standalone="no"?>
<!DOCTYPE svg PUBLIC "-//W3C//DTD SVG 20010904//EN"
 "http://www.w3.org/TR/2001/REC-SVG-20010904/DTD/svg10.dtd">
<svg version="1.0" xmlns="http://www.w3.org/2000/svg"
 width="1118.000000pt" height="200.000000pt" viewBox="0 0 1118.000000 200.000000"
 preserveAspectRatio="xMidYMid meet">

<g transform="translate(0.000000,200.000000) scale(0.100000,-0.100000)"
fill="#000000" stroke="none">
<path d="M1193 1849 c-2 -57 -23 -89 -86 -131 -56 -37 -67 -35 -31 5 26 29 25
28 -11 -5 -22 -20 -56 -46 -75 -58 -19 -12 -26 -19 -15 -15 130 47 191 85 224
139 23 37 28 88 9 104 -10 8 -13 -1 -15 -39z"/>
<path d="M995 1754 c-22 -20 -31 -31 -20 -26 18 9 74 62 64 62 -2 -1 -22 -17
-44 -36z"/>
<path d="M1400 1653 c19 -10 36 -25 37 -33 1 -8 9 -42 17 -75 26 -101 18 -153
-21 -141 -11 4 -47 31 -79 61 -33 30 -62 55 -66 55 -3 0 -15 16 -27 36 -25 42
-96 78 -138 69 l-28 -6 25 16 25 16 -25 -7 c-41 -10 -94 -57 -115 -102 -11
-23 -24 -41 -29 -42 -6 0 -21 11 -35 24 -15 13 -39 32 -56 41 l-30 18 20 -21
c18 -20 20 -31 15 -139 -3 -65 -3 -163 1 -218 9 -129 -9 -242 -46 -291 -45
-59 -78 -43 -90 43 -4 29 -11 55 -16 59 -5 3 -9 22 -9 42 0 20 -5 44 -10 52
-6 10 -9 -54 -8 -190 0 -113 3 -195 5 -182 2 12 8 22 13 22 12 0 23 -64 15
-89 -6 -20 -5 -20 32 -5 85 36 170 105 208 169 l18 30 -26 -30 c-15 -16 -26
-32 -27 -35 0 -9 -92 -76 -114 -84 -16 -6 -18 -3 -12 26 3 18 19 51 35 73 37
52 119 217 115 230 -2 6 4 15 13 21 16 10 18 6 16 -45 l-2 -56 9 44 c5 24 11
46 14 48 3 3 53 0 113 -7 232 -25 335 -91 383 -248 24 -78 27 -221 6 -302 -8
-30 -13 -56 -11 -58 4 -4 35 89 35 106 0 9 6 23 14 31 7 9 23 55 35 103 20 79
21 94 10 150 -11 57 -18 69 -73 124 -89 88 -134 106 -270 111 -127 4 -150 9
-142 30 6 15 -2 14 -81 -4 -22 -5 -23 -3 -25 78 -3 152 3 333 13 366 15 46 53
73 103 73 86 0 120 -39 142 -164 17 -99 24 -118 62 -158 27 -29 116 -68 157
-68 13 0 31 -3 40 -7 15 -5 14 -8 -6 -20 -22 -13 -21 -13 21 -8 25 3 99 15
165 27 l120 22 -55 7 c-106 12 -152 55 -165 156 -12 98 -31 145 -77 190 -48
46 -86 67 -138 77 l-35 7 35 -18z m-402 -405 l-3 -63 -17 57 c-10 31 -18 70
-18 87 0 17 8 47 18 67 l17 37 3 -61 c2 -34 2 -90 0 -124z"/>
<path d="M679 1534 c16 -22 26 -57 34 -115 11 -82 11 -83 19 -43 10 49 -19
139 -54 170 -21 18 -21 18 1 -12z"/>
<path d="M8703 1455 l-113 -54 0 -330 0 -331 359 0 359 0 86 72 c47 40 86 76
86 80 0 4 -146 8 -325 8 l-325 0 0 305 c0 168 -3 305 -7 304 -5 0 -59 -24
-120 -54z"/>
<path d="M9688 1454 l-108 -54 0 -330 0 -330 358 0 358 0 85 71 c46 39 86 75
87 80 2 5 -134 9 -322 9 l-326 0 0 305 c0 238 -3 305 -12 304 -7 0 -61 -25
-120 -55z"/>
<path d="M364 1396 c11 -9 24 -16 30 -16 5 0 7 -3 3 -6 -3 -3 4 -23 16 -43 49
-80 55 -124 17 -136 -39 -12 -220 100 -240 149 -8 18 -9 17 -9 -11 -3 -114 50
-193 178 -266 41 -23 79 -49 84 -58 28 -46 -30 -98 -134 -120 -30 -7 -48 -14
-40 -17 20 -7 118 17 178 43 65 29 140 98 164 150 20 44 25 141 9 165 -8 11
-9 7 -5 -15 6 -30 6 -29 -34 15 -22 24 -38 46 -36 49 3 2 0 10 -6 18 -24 29
14 12 44 -19 24 -26 28 -27 16 -8 -28 45 -115 95 -234 135 -20 7 -20 6 -1 -9z
m12 -314 c-5 -4 -66 26 -66 33 0 3 16 -3 35 -12 19 -9 33 -18 31 -21z m100
-16 c39 5 54 2 73 -13 l23 -19 -25 -29 c-14 -17 -39 -38 -57 -49 l-32 -18 7
30 c6 27 1 36 -37 73 -24 23 -33 37 -22 31 13 -7 42 -9 70 -6z"/>
<path d="M2310 1070 l0 -330 408 0 407 0 88 100 c48 54 87 102 87 106 0 3 -23
33 -51 65 l-51 59 30 37 c16 21 39 47 51 57 12 11 21 23 21 29 0 5 -39 54 -86
108 l-86 99 -409 0 -409 0 0 -330z m694 159 c32 -25 32 -36 4 -66 -21 -23 -25
-23 -240 -23 l-218 0 0 55 0 55 214 0 c201 0 215 -1 240 -21z m6 -254 l23 -25
-23 -25 -23 -25 -219 0 -218 0 0 50 0 50 218 0 219 0 23 -25z"/>
<path d="M3480 1015 c0 -212 2 -385 4 -385 2 0 56 25 120 56 l116 56 0 109 0
109 216 0 216 0 39 -31 39 -31 0 -79 0 -80 118 3 117 3 3 95 2 95 -65 54 -65
54 22 28 c13 15 42 50 65 77 l42 49 -87 101 -87 101 -407 0 -408 1 0 -385z
m706 200 l26 -35 -26 -35 -27 -35 -217 2 -217 3 -3 54 c-2 29 -1 60 2 67 4 11
48 14 220 14 l215 0 27 -35z"/>
<path d="M4713 1327 l-83 -71 0 -185 0 -186 87 -72 87 -73 321 0 320 1 88 75
87 76 -1 181 0 182 -87 72 -87 73 -325 -1 -325 0 -82 -72z m667 -252 l0 -175
-255 0 -255 0 0 175 0 175 255 0 255 0 0 -175z"/>
<path d="M5810 1070 l0 -330 388 2 387 3 109 162 109 163 -109 165 -109 165
-387 0 -388 0 0 -330z m670 90 l60 -90 -56 -85 -57 -85 -189 0 -188 0 0 175 0
175 185 0 184 0 61 -90z"/>
<path d="M6980 1070 l0 -330 408 0 407 1 80 91 c44 50 84 98 88 105 6 9 -8 32
-42 70 -28 31 -51 60 -51 64 0 3 17 26 38 50 71 84 74 67 -25 178 l-88 101
-407 0 -408 0 0 -330z m693 155 l28 -25 -22 -30 -23 -30 -218 0 -218 0 0 55 0
55 213 0 c211 -1 212 -1 240 -25z m7 -250 l23 -25 -23 -25 -23 -25 -219 0
-218 0 0 50 0 50 218 0 219 0 23 -25z"/>
<path d="M8150 1015 c0 -212 2 -385 4 -385 1 0 55 25 120 55 l116 56 0 329 0
330 -120 0 -120 0 0 -385z"/>
<path d="M1575 1124 c17 -9 39 -30 50 -47 64 -107 78 -136 96 -204 46 -181 7
-338 -113 -455 -71 -69 -208 -176 -254 -198 -48 -24 -164 -39 -164 -21 0 6
-14 11 -30 11 -77 0 -159 68 -261 216 -47 69 -92 120 -125 145 -48 37 -82 53
-57 28 9 -9 8 -16 -3 -27 -17 -17 -13 -44 16 -104 15 -32 16 -40 5 -44 -7 -3
-76 16 -152 42 -198 68 -336 74 -403 18 -33 -28 -40 -22 -13 10 17 20 17 20
-1 6 -23 -18 -66 -107 -66 -137 0 -36 17 -27 23 12 8 50 40 90 87 109 80 32
104 24 265 -83 114 -77 195 -125 200 -119 3 2 -33 25 -78 52 -45 26 -100 63
-122 82 -40 35 -40 35 -11 29 16 -3 133 -58 260 -121 198 -98 224 -114 183
-109 -26 4 -73 15 -104 26 -31 10 -58 17 -60 15 -6 -5 108 -42 187 -61 206
-47 485 -19 677 70 40 19 73 36 73 39 0 3 -28 -8 -62 -24 -53 -25 -98 -38 -98
-27 0 1 40 44 90 94 86 88 144 168 203 278 28 52 59 186 50 214 -4 12 -3 13 6
5 6 -6 18 -39 25 -75 12 -52 15 -57 15 -28 2 84 -48 198 -120 274 -49 52 -146
105 -214 119 l-30 6 30 -16z"/>
<path d="M1902 630 c0 -14 2 -19 5 -12 2 6 2 18 0 25 -3 6 -5 1 -5 -13z"/>
<path d="M1891 584 c0 -11 3 -14 6 -6 3 7 2 16 -1 19 -3 4 -6 -2 -5 -13z"/>
<path d="M7970 380 l0 -190 35 0 35 0 0 190 0 190 -35 0 -35 0 0 -190z"/>
<path d="M2880 370 l0 -180 35 0 35 0 0 180 0 180 -35 0 -35 0 0 -180z"/>
<path d="M3030 530 c0 -18 7 -20 75 -20 l75 0 0 -160 0 -160 35 0 35 0 0 160
0 160 75 0 c68 0 75 2 75 20 0 19 -7 20 -185 20 -178 0 -185 -1 -185 -20z"/>
<path d="M3704 531 c-26 -12 -45 -29 -53 -48 -26 -63 19 -105 150 -138 80 -21
109 -39 109 -69 0 -60 -147 -69 -197 -12 -15 17 -32 26 -53 26 -51 0 -33 -48
33 -82 33 -17 59 -22 122 -22 116 0 165 30 165 102 0 45 -49 79 -150 102 -103
24 -134 51 -101 91 12 15 31 23 67 26 56 4 94 -11 109 -45 13 -29 75 -32 75
-4 0 25 -36 61 -76 78 -48 20 -150 17 -200 -5z"/>
<path d="M5044 535 c-9 -23 9 -37 42 -33 21 2 29 8 29 23 0 26 -62 35 -71 10z"/>
<path d="M6595 538 c-51 -29 -61 -90 -20 -128 l24 -23 -39 -28 c-65 -48 -66
-115 -1 -153 42 -24 149 -28 199 -7 25 10 36 11 45 2 6 -6 30 -11 54 -11 l43
0 -32 29 -32 28 17 36 c27 55 23 77 -13 77 -22 0 -30 -5 -30 -18 0 -10 -6 -26
-12 -34 -12 -15 -18 -12 -61 27 l-48 44 30 16 c75 38 90 87 40 129 -25 21 -41
26 -87 26 -31 0 -66 -6 -77 -12z m116 -44 c23 -21 11 -47 -30 -69 -26 -13 -30
-13 -43 3 -28 32 -29 41 -8 62 24 24 57 26 81 4z m-3 -208 c17 -17 32 -33 32
-37 0 -13 -65 -27 -96 -22 -65 12 -84 66 -37 102 29 24 26 25 101 -43z"/>
<path d="M7198 529 c-64 -33 -76 -83 -30 -128 19 -19 52 -34 112 -50 97 -26
130 -44 130 -70 0 -62 -167 -75 -206 -15 -11 16 -26 24 -45 24 -39 0 -39 -30
1 -63 84 -71 296 -50 317 31 16 64 -34 106 -161 136 -79 18 -112 42 -102 74
19 58 161 56 188 -3 9 -19 19 -25 45 -25 21 0 33 5 33 14 0 23 -42 68 -76 82
-50 21 -161 17 -206 -7z"/>
<path d="M8784 535 c-9 -22 4 -35 36 -35 27 0 46 22 34 41 -9 15 -64 10 -70
-6z"/>
<path d="M8560 490 c0 -27 -3 -30 -30 -30 -23 0 -30 -4 -30 -20 0 -16 7 -20
30 -20 l30 0 0 -94 c0 -116 13 -138 81 -140 39 -1 44 2 47 22 2 15 -1 23 -10
21 -47 -6 -48 -4 -48 96 l0 95 30 0 c23 0 30 4 30 20 0 16 -7 20 -30 20 -27 0
-30 3 -30 30 0 28 -3 30 -35 30 -32 0 -35 -2 -35 -30z"/>
<path d="M1821 443 c-19 -27 -25 -40 -15 -31 18 16 59 78 51 78 -2 0 -18 -21
-36 -47z"/>
<path d="M4119 437 c-65 -43 -86 -124 -49 -184 45 -75 189 -95 265 -38 17 14
18 17 3 31 -13 13 -20 14 -38 4 -64 -34 -136 -29 -165 13 -31 44 -23 47 105
47 l120 0 0 26 c0 43 -29 91 -65 108 -50 24 -135 21 -176 -7z m145 -38 c48
-38 35 -49 -59 -49 -82 0 -85 1 -75 19 27 51 89 65 134 30z"/>
<path d="M4440 325 l0 -135 35 0 35 0 0 100 c0 111 6 121 76 123 29 1 34 5 34
24 0 20 -5 23 -36 23 -19 0 -44 -5 -55 -10 -13 -7 -19 -7 -19 0 0 5 -16 10
-35 10 l-35 0 0 -135z"/>
<path d="M4660 455 c0 -3 29 -64 65 -135 60 -120 67 -130 93 -129 25 0 32 11
87 125 33 69 62 130 63 135 2 5 -12 9 -30 9 -34 0 -35 -2 -72 -87 -21 -49 -41
-92 -45 -96 -4 -4 -27 35 -51 88 -42 93 -44 95 -76 95 -19 0 -34 -2 -34 -5z"/>
<path d="M5050 325 l0 -135 30 0 30 0 0 135 0 135 -30 0 -30 0 0 -135z"/>
<path d="M5284 446 c-49 -22 -74 -61 -74 -118 0 -86 38 -129 127 -144 73 -11
173 35 173 81 0 20 -56 20 -64 0 -10 -28 -69 -45 -110 -34 -29 8 -41 18 -53
46 -44 106 69 192 149 113 34 -34 78 -41 78 -12 0 20 -31 52 -67 71 -29 15
-121 13 -159 -3z"/>
<path d="M5652 442 c-47 -26 -72 -68 -72 -124 0 -38 6 -54 30 -82 54 -61 188
-72 248 -21 l26 22 -22 12 c-18 9 -27 8 -47 -5 -55 -36 -155 -9 -163 45 -3 20
-1 21 117 21 115 0 121 1 121 20 0 39 -29 90 -62 110 -42 26 -129 26 -176 2z
m143 -47 c40 -39 32 -45 -60 -45 -47 0 -85 3 -85 6 0 16 24 46 43 54 40 16 77
11 102 -15z"/>
<path d="M6030 453 c-31 -12 -60 -47 -60 -75 0 -36 28 -54 114 -72 38 -8 76
-21 84 -30 15 -15 15 -17 0 -32 -24 -25 -103 -22 -131 4 -27 25 -77 30 -77 7
0 -44 92 -81 176 -70 69 8 104 36 104 80 0 42 -27 61 -116 79 -36 8 -73 21
-81 29 -14 13 -12 17 11 32 31 20 94 15 112 -10 6 -8 26 -15 43 -15 43 0 39
26 -8 57 -27 18 -47 23 -95 22 -34 0 -68 -3 -76 -6z"/>
<path d="M7618 439 c-46 -24 -68 -64 -68 -124 0 -151 272 -185 320 -39 23 68
-11 143 -76 170 -48 20 -132 17 -176 -7z m169 -54 c43 -50 23 -132 -37 -151
-86 -28 -158 42 -129 126 23 63 121 78 166 25z"/>
<path d="M8150 354 c0 -58 5 -114 11 -126 23 -43 111 -60 174 -34 19 8 35 11
35 5 0 -5 14 -9 30 -9 l30 0 0 135 0 135 -30 0 -30 0 0 -100 c0 -95 -1 -100
-25 -116 -38 -25 -94 -23 -116 5 -16 19 -19 40 -19 117 l0 94 -30 0 -30 0 0
-106z"/>
<path d="M8780 325 l0 -135 35 0 35 0 0 135 0 135 -35 0 -35 0 0 -135z"/>
<path d="M9021 442 c-50 -25 -74 -63 -74 -117 0 -92 56 -140 163 -140 107 0
160 47 160 143 0 58 -25 97 -76 118 -46 19 -132 18 -173 -4z m138 -37 c83 -42
51 -175 -43 -178 -71 -2 -115 48 -102 116 12 66 81 96 145 62z"/>
<path d="M9360 325 l0 -135 35 0 35 0 0 94 c0 90 1 96 26 115 29 23 74 27 105
11 17 -10 19 -22 19 -115 l0 -105 35 0 35 0 0 106 c0 103 -1 106 -29 135 -25
25 -37 29 -83 29 -29 0 -65 -7 -80 -14 -24 -13 -28 -13 -28 0 0 9 -11 14 -35
14 l-35 0 0 -135z"/>
<path d="M9793 441 c-34 -21 -48 -50 -38 -80 7 -22 61 -46 138 -61 60 -12 78
-29 58 -54 -25 -30 -125 -23 -138 10 -7 18 -73 19 -73 1 0 -34 84 -77 150 -77
43 0 99 20 120 42 47 51 8 98 -104 122 -82 19 -104 38 -71 62 27 20 78 17 108
-6 29 -23 77 -27 77 -7 0 8 -12 24 -26 38 -36 34 -154 40 -201 10z"/>
<path d="M1459 353 c-13 -16 -12 -17 4 -4 16 13 21 21 13 21 -2 0 -10 -8 -17
-17z"/>
<path d="M1729 343 c-13 -16 -12 -17 4 -4 16 13 21 21 13 21 -2 0 -10 -8 -17
-17z"/>
<path d="M700 270 c8 -5 20 -10 25 -10 6 0 3 5 -5 10 -8 5 -19 10 -25 10 -5 0
-3 -5 5 -10z"/>
</g>
</svg>
