<?xml version="1.0" standalone="no"?>
<!DOCTYPE svg PUBLIC "-//W3C//DTD SVG 20010904//EN"
 "http://www.w3.org/TR/2001/REC-SVG-20010904/DTD/svg10.dtd">
<svg version="1.0" xmlns="http://www.w3.org/2000/svg"
 width="226.000000pt" height="223.000000pt" viewBox="0 0 226.000000 223.000000"
 preserveAspectRatio="xMidYMid meet">

<g transform="translate(0.000000,223.000000) scale(0.100000,-0.100000)"
fill="#000000" stroke="none">
<path d="M1001 2154 c-13 -90 -15 -94 -45 -94 -13 0 -60 -11 -105 -23 l-81
-24 -48 63 -48 63 -99 -56 c-55 -30 -102 -57 -104 -59 -2 -2 9 -34 25 -71 16
-38 29 -70 29 -73 0 -3 -37 -41 -82 -84 l-83 -79 -68 26 c-37 15 -71 27 -74
27 -9 0 -118 -182 -118 -195 0 -6 25 -28 56 -50 31 -22 58 -43 60 -47 3 -4 -6
-44 -21 -88 -14 -45 -25 -92 -25 -105 0 -26 3 -25 -115 -43 l-50 -7 -3 -117
-3 -116 68 -7 c37 -4 74 -11 82 -15 7 -4 24 -47 36 -96 13 -49 26 -96 29 -104
3 -10 -16 -31 -59 -63 l-64 -49 30 -51 c16 -29 42 -73 57 -99 15 -27 32 -48
39 -48 6 0 40 13 75 29 l64 28 81 -81 82 -81 -30 -70 c-16 -38 -29 -72 -29
-76 0 -6 192 -119 202 -119 2 0 26 29 54 65 35 47 53 63 64 58 8 -3 59 -18
112 -31 l96 -25 12 -83 12 -84 118 0 117 0 11 81 c5 44 12 82 15 85 2 3 41 14
86 24 46 11 91 25 101 30 17 9 27 1 72 -59 l52 -70 30 18 c17 10 61 35 98 55
37 21 70 41 72 44 2 4 -9 40 -26 81 l-29 75 79 79 79 79 77 -33 c70 -29 78
-31 89 -15 23 31 110 187 106 190 -130 97 -131 99 -124 120 4 11 18 59 30 106
l23 85 86 9 86 8 0 117 0 117 -87 15 -86 14 -13 60 c-7 33 -19 79 -28 103
l-15 42 69 50 68 50 -56 101 c-64 112 -54 107 -159 68 -34 -13 -63 -21 -65
-19 -2 3 -36 40 -76 81 l-74 76 32 73 c17 39 30 73 28 75 -2 2 -48 29 -102 61
l-99 58 -31 -39 c-17 -22 -40 -50 -51 -63 l-20 -23 -89 25 c-48 14 -99 26
-111 26 -26 0 -29 9 -40 113 l-6 57 -119 0 -118 0 -11 -76z m98 -186 l21 -33
0 33 c0 17 5 32 10 32 12 0 13 -97 1 -104 -5 -3 -18 9 -30 27 l-21 32 0 -32
c0 -18 -4 -33 -10 -33 -5 0 -10 25 -10 55 0 30 4 55 9 55 5 0 18 -15 30 -32z
m135 22 c39 -15 33 -32 -9 -24 -33 6 -35 5 -35 -20 0 -15 7 -29 15 -33 21 -8
33 6 15 17 -20 12 -6 23 20 15 15 -5 20 -13 18 -28 -7 -47 -98 -24 -98 25 0
16 32 58 44 58 3 0 16 -4 30 -10z m-204 -10 c0 -5 -11 -10 -25 -10 -14 0 -25
-4 -25 -10 0 -5 11 -10 25 -10 14 0 25 -4 25 -10 0 -5 -12 -10 -26 -10 -16 0
-24 -5 -21 -12 2 -8 15 -12 30 -10 41 5 32 -15 -9 -23 -20 -3 -37 -5 -39 -3
-1 2 -5 24 -9 50 -6 40 -4 47 11 51 33 9 63 7 63 -3z m275 -32 c-11 -56 -16
-68 -27 -68 -7 0 -8 14 -4 38 3 20 6 43 6 50 0 6 7 12 16 12 12 0 14 -7 9 -32z
m60 -19 l12 -34 8 33 c4 22 11 30 17 24 6 -6 5 -26 -2 -55 -14 -52 -32 -54
-47 -4 l-10 32 -8 -27 c-7 -28 -25 -39 -25 -15 0 30 22 88 32 85 7 -3 17 -20
23 -39z m-475 26 c0 -3 -12 -10 -26 -15 -29 -11 -24 -31 6 -23 11 3 20 0 20
-6 0 -6 -7 -11 -16 -11 -12 0 -15 -6 -10 -25 11 -45 -18 -28 -36 21 -16 45
-16 46 5 54 25 10 57 13 57 5z m590 -30 c17 -9 30 -20 30 -26 0 -6 -8 -6 -21
2 -15 8 -24 8 -32 0 -8 -8 -6 -11 5 -11 18 0 34 -18 25 -26 -3 -3 -15 -1 -26
6 -17 8 -21 8 -21 -4 0 -8 9 -18 20 -21 20 -6 28 -25 10 -25 -16 0 -60 23 -60
31 0 13 32 89 37 89 2 0 17 -7 33 -15z m-678 -22 c26 -23 23 -59 -7 -79 -23
-15 -27 -15 -50 0 -27 18 -34 63 -13 84 17 17 48 15 70 -5z m773 -25 c14 -6
25 -18 25 -26 0 -12 -3 -12 -24 1 -31 21 -44 8 -14 -14 12 -10 20 -21 16 -25
-4 -4 -15 -1 -23 6 -12 10 -19 10 -27 2 -8 -8 -4 -14 15 -23 15 -7 24 -16 21
-20 -4 -7 -56 12 -73 27 -5 5 42 84 50 84 5 0 20 -5 34 -12z m-944 -49 c-28
-23 -22 -36 9 -19 30 16 39 3 12 -16 -30 -21 -17 -40 13 -20 35 23 39 3 5 -22
-16 -12 -31 -22 -33 -22 -3 0 -17 19 -32 42 l-27 41 23 18 c34 26 61 24 30 -2z
m1048 -23 c16 -19 8 -46 -14 -46 -9 0 -15 -9 -15 -26 0 -37 -24 -25 -28 15 -3
32 -4 32 -23 15 -33 -30 -33 -7 1 35 33 43 49 44 79 7z m-336 -29 c43 -14 108
-43 146 -66 65 -38 191 -150 191 -169 0 -12 -121 -66 -205 -92 -228 -69 -529
-67 -750 5 -99 33 -165 63 -165 75 0 17 118 129 177 166 72 47 126 70 215 94
105 29 282 23 391 -13z m-778 2 c-5 -15 1 -29 20 -49 17 -18 23 -30 16 -35 -6
-3 -22 7 -36 23 -18 22 -31 29 -48 25 -19 -4 -18 -1 11 26 38 36 46 38 37 10z
m1165 -15 c0 -12 -56 -74 -67 -74 -20 0 -15 12 19 47 29 30 48 41 48 27z m34
-40 c-1 -5 -5 -22 -9 -39 l-7 -30 24 23 c37 34 43 13 6 -25 -44 -45 -61 -44
-52 5 l7 37 -22 -19 c-36 -32 -37 -8 -1 29 31 32 57 41 54 19z m-1228 -88
c-21 -33 -38 -33 -78 3 -40 35 -31 52 10 22 17 -12 35 -21 41 -21 20 0 11 28
-16 48 -16 12 -23 24 -18 32 5 9 17 2 43 -23 35 -35 35 -36 18 -61z m-111 -5
c-4 -14 3 -25 25 -41 17 -12 28 -26 24 -31 -3 -5 -19 0 -35 11 -18 14 -36 19
-49 15 -26 -8 -25 -1 2 35 25 34 42 39 33 11z m1427 -8 c20 -18 23 -38 8 -48
-6 -3 -14 5 -20 19 -11 29 -31 33 -50 11 -14 -16 -7 -45 11 -45 6 0 9 7 5 15
-7 20 8 19 24 -1 11 -12 11 -18 -2 -30 -37 -37 -88 37 -53 76 22 24 52 26 77
3z m-1438 -87 c51 -31 29 -45 -24 -15 -40 23 -51 39 -27 39 6 0 29 -11 51 -24z
m-64 -25 c0 -11 12 -23 30 -31 17 -7 30 -18 30 -26 0 -10 -7 -10 -36 2 -25 11
-39 12 -48 5 -22 -18 -26 -1 -9 35 18 37 33 44 33 15z m1389 -54 c16 -28 42
-88 57 -132 24 -69 28 -96 28 -200 1 -169 -32 -273 -131 -412 l-44 -63 -37 19
c-20 10 -74 31 -120 45 -247 78 -549 75 -782 -6 -131 -46 -120 -47 -167 24
-87 130 -118 233 -118 393 1 118 22 212 71 305 41 79 34 76 116 42 41 -17 112
-42 159 -55 277 -81 630 -51 869 72 30 16 58 27 62 25 4 -3 20 -28 37 -57z
m194 29 c7 -17 -68 -92 -77 -78 -3 6 -2 13 4 17 14 9 -6 45 -25 45 -32 0 -13
19 23 23 20 2 44 4 53 5 9 1 19 -4 22 -12z m-1613 -66 c0 -5 -4 -10 -10 -10
-5 0 -10 -8 -10 -17 0 -14 4 -13 24 7 40 36 70 9 50 -44 -7 -17 -44 -22 -44
-6 0 6 -11 10 -25 10 -21 0 -25 5 -25 28 0 16 3 32 7 35 10 11 33 8 33 -3z
m1624 -51 l-29 -30 29 11 c18 6 33 7 38 2 6 -6 -9 -16 -38 -26 -60 -20 -79 -8
-43 30 l24 26 -29 -8 c-45 -11 -28 17 20 31 53 16 65 2 28 -36z m-1620 -45
c45 -8 46 -28 4 -41 l-33 -10 28 -8 c30 -8 37 -25 10 -25 -10 0 -35 5 -56 11
-30 8 -36 13 -27 24 6 7 23 16 38 20 l27 8 -24 6 c-14 4 -27 13 -29 20 -3 10
0 12 11 8 9 -3 32 -9 51 -13z m1676 -47 c0 -42 -15 -57 -57 -57 -34 0 -36 3
-47 67 -1 8 43 20 82 22 19 1 22 -4 22 -32z m-1663 -61 c13 -13 -8 -18 -52
-12 -60 9 -60 30 0 23 26 -2 49 -7 52 -11z m1683 -91 c0 -19 -4 -37 -10 -40
-5 -3 -10 1 -10 9 0 12 -11 16 -46 16 -55 0 -57 23 -3 28 19 2 38 10 42 18 13
23 27 6 27 -31z m-1680 6 c0 -5 -12 -19 -28 -30 l-27 -20 28 -1 c15 0 27 -4
27 -10 0 -5 -25 -10 -55 -10 -63 0 -70 12 -22 37 l32 18 -32 3 c-54 5 -37 22
22 22 30 0 55 -4 55 -9z m1639 -67 c28 -6 31 -10 31 -45 0 -22 -4 -39 -10 -39
-5 0 -10 14 -10 30 0 17 -4 30 -10 30 -5 0 -10 -11 -10 -25 0 -14 -4 -25 -10
-25 -5 0 -10 11 -10 24 0 36 -17 40 -24 6 -3 -17 -11 -30 -17 -30 -7 0 -9 9
-5 23 3 12 6 30 6 40 0 18 17 21 69 11z m-1639 -29 c0 -8 -4 -15 -10 -15 -16
0 -12 -30 5 -36 8 -4 15 -12 15 -20 0 -14 -5 -14 -80 6 -36 9 -31 27 15 54 48
29 55 30 55 11z m1638 -77 c17 -17 15 -53 -3 -68 -20 -17 -32 -5 -15 15 18 21
5 47 -22 43 -19 -2 -22 -8 -20 -32 2 -19 -1 -27 -10 -24 -18 6 -23 59 -6 69
19 13 62 11 76 -3z m-1618 -27 c0 -5 -9 -12 -19 -16 -27 -8 -15 -35 15 -35 40
0 27 -17 -22 -29 -30 -8 -50 -9 -56 -3 -7 7 -2 13 12 17 26 8 21 29 -8 33 -32
5 -27 18 11 30 42 13 67 14 67 3z m1570 -67 c41 -17 56 -41 19 -31 -27 7 -37
-20 -13 -38 30 -22 11 -26 -39 -9 -26 9 -47 22 -47 30 0 17 5 17 30 4 14 -7
19 -5 23 9 3 13 -1 21 -14 24 -19 5 -27 27 -9 27 5 0 28 -7 50 -16z m-1530
-47 c0 -7 -16 -19 -36 -26 -23 -8 -34 -18 -30 -27 3 -7 1 -16 -5 -19 -11 -7
-44 64 -34 73 3 4 10 1 14 -6 6 -10 16 -9 47 2 21 8 40 15 42 15 1 1 2 -5 2
-12z m1485 -49 c52 -25 53 -41 4 -48 -31 -5 -32 -7 -11 -14 22 -7 31 -26 12
-26 -22 0 -90 41 -85 50 4 6 23 10 43 10 l37 1 -27 15 c-16 8 -28 19 -28 24 0
14 3 13 55 -12z m-1445 -29 c7 -11 9 -27 6 -35 -7 -17 -27 -19 -25 -1 3 24 -1
37 -12 37 -7 0 -9 -10 -5 -26 7 -25 -7 -54 -25 -54 -4 0 -15 7 -23 16 -19 19
-22 58 -3 52 6 -3 12 -10 12 -15 0 -6 4 -15 9 -20 5 -5 6 2 3 16 -12 47 41 72
63 30z m805 1 c150 -17 363 -79 373 -108 4 -14 -106 -96 -180 -133 -245 -124
-554 -86 -769 93 l-63 52 45 19 c61 26 213 64 301 75 102 13 188 13 293 2z
m-775 -75 c0 -18 8 -29 28 -37 27 -10 26 -11 -27 -25 -30 -8 -58 -10 -62 -6
-9 9 37 93 52 93 5 0 9 -11 9 -25z m1370 7 c28 -22 22 -65 -11 -83 -18 -9 -26
-7 -48 9 -33 24 -38 48 -15 73 22 24 45 24 74 1z m-72 -95 c41 -42 31 -55 -15
-20 -33 25 -34 25 -48 7 -7 -10 -16 -16 -20 -12 -9 8 26 57 41 58 5 0 25 -15
42 -33z m-1224 17 c17 -7 22 -54 6 -54 -5 0 -10 7 -10 15 0 21 -12 19 -44 -6
-38 -30 -45 -15 -11 21 31 32 34 33 59 24z m50 -66 c6 -13 18 -23 26 -23 30 0
60 -26 60 -50 0 -29 8 -32 25 -8 7 9 15 12 18 7 5 -9 -42 -94 -53 -94 -3 0
-18 10 -33 23 -29 23 -30 57 -1 57 8 0 14 10 14 25 l0 25 -49 -25 c-31 -15
-52 -21 -56 -15 -7 12 24 114 33 106 3 -3 10 -16 16 -28z m1107 -9 c26 -26 21
-59 -13 -78 -25 -15 -29 -14 -52 8 -30 28 -33 47 -9 73 21 24 48 23 74 -3z
m-99 -66 c26 -23 23 -59 -7 -79 -23 -15 -45 -12 -45 7 0 5 9 9 20 9 27 0 37
27 17 47 -16 16 -47 12 -47 -6 0 -6 7 -8 15 -5 18 7 20 -7 3 -24 -17 -17 -26
-15 -38 8 -8 15 -6 24 10 40 24 24 47 26 72 3z m-127 -52 c3 -11 20 -28 37
-39 20 -13 26 -22 18 -27 -6 -4 -17 -2 -23 4 -16 16 -27 13 -27 -8 0 -10 -6
-21 -12 -24 -10 -3 -13 12 -13 54 -1 59 8 76 20 40z m-631 -30 c9 -14 -4 -41
-19 -41 -17 0 -38 27 -30 40 8 12 42 13 49 1z m93 -47 c-6 -36 -22 -64 -38
-64 -15 0 -39 32 -33 42 5 7 11 5 20 -6 14 -20 19 -14 29 32 9 45 29 42 22 -4z
m469 25 c3 -6 -1 -18 -10 -27 -15 -15 -17 -15 -32 0 -19 19 -11 38 16 38 10 0
22 -5 26 -11z m-92 -15 c4 -9 2 -22 -4 -29 -8 -9 -6 -14 5 -19 18 -6 20 -26 3
-26 -6 0 -20 7 -30 17 -17 15 -18 15 -18 -5 0 -38 -18 -24 -27 21 -7 34 -6 43
6 49 28 12 59 8 65 -8z m-300 -43 c10 -48 2 -63 -18 -35 -13 17 -18 17 -36 6
-12 -7 -24 -11 -27 -8 -10 9 47 88 60 83 7 -2 16 -22 21 -46z m46 6 c0 -35
-15 -66 -26 -55 -10 10 6 99 17 93 5 -4 9 -21 9 -38z m168 -13 c-3 -36 -6 -39
-35 -42 -28 -3 -33 1 -39 23 -5 19 -10 23 -17 16 -6 -6 -19 -11 -29 -11 -10 0
-18 -7 -18 -15 0 -8 -4 -15 -10 -15 -5 0 -10 20 -10 45 0 43 1 45 28 45 15 0
33 -5 40 -12 9 -9 12 -9 12 0 0 7 5 12 10 12 6 0 10 -9 10 -19 0 -30 11 -51
27 -51 10 0 14 10 13 33 -3 47 -1 52 11 40 6 -6 9 -28 7 -49z"/>
<path d="M745 1890 c-11 -18 6 -50 25 -50 25 0 33 15 20 40 -11 21 -35 27 -45
10z"/>
<path d="M1632 1799 c2 -7 10 -15 17 -17 8 -3 12 1 9 9 -2 7 -10 15 -17 17 -8
3 -12 -1 -9 -9z"/>
<path d="M1114 1729 c-9 -19 -14 -47 -12 -70 3 -36 1 -39 -22 -40 -17 -1 -12
-4 15 -9 22 -5 52 -6 67 -3 35 7 124 -15 140 -34 10 -13 9 -18 -7 -30 -24 -17
-61 -12 -120 18 l-42 21 -34 -21 c-55 -34 -167 -25 -131 11 5 5 27 16 48 24
l39 15 -35 -6 c-53 -8 -84 -36 -88 -78 -6 -68 54 -97 203 -97 141 1 209 34
203 99 -4 46 -49 77 -123 86 -51 7 -54 9 -58 39 l-4 31 -1 -33 c-2 -40 -22
-39 -36 1 -7 18 -6 35 4 54 l13 28 8 -25 c6 -22 7 -20 8 13 1 45 -13 48 -35 6z
m63 -189 c41 -22 103 -26 134 -10 10 6 19 7 19 2 0 -19 -60 -35 -108 -29 -36
5 -43 4 -29 -4 19 -11 86 -8 122 5 17 7 17 5 -4 -13 -28 -25 -111 -28 -150 -7
-21 11 -29 12 -45 1 -34 -21 -82 -27 -125 -15 -57 15 -63 32 -9 25 35 -4 37
-3 12 4 -38 10 -54 19 -54 32 0 6 7 6 19 -1 31 -16 103 -11 141 10 19 11 36
19 38 20 1 0 19 -9 39 -20z"/>
<path d="M1108 1524 c-9 -9 -31 -20 -49 -25 -30 -8 -28 -8 11 -3 25 3 48 12
53 20 6 11 12 12 30 2 20 -10 21 -10 8 5 -17 21 -32 21 -53 1z"/>
<path d="M530 1066 l0 -176 55 0 55 0 0 70 c0 62 2 70 19 70 13 0 30 -21 55
-70 l37 -70 60 0 59 0 -29 59 c-17 32 -42 68 -57 80 -17 13 -21 21 -12 21 9 0
27 12 42 26 35 35 36 92 2 131 -24 28 -26 28 -155 31 l-131 4 0 -176z m201 88
c21 -25 -1 -49 -50 -52 -41 -3 -41 -3 -41 32 0 35 1 36 39 36 23 0 44 -6 52
-16z"/>
<path d="M910 1065 l0 -175 55 0 55 0 0 175 0 175 -55 0 -55 0 0 -175z"/>
<path d="M1100 1065 l0 -175 145 0 145 0 0 40 0 40 -95 0 -95 0 0 35 0 35 85
0 85 0 0 35 0 35 -85 0 -85 0 0 30 0 30 90 0 90 0 0 35 0 35 -140 0 -140 0 0
-175z"/>
<path d="M1420 1200 l0 -40 55 0 55 0 0 -135 0 -135 55 0 55 0 0 135 0 135 49
0 49 0 4 40 4 40 -163 0 -163 0 0 -40z"/>
<path d="M1880 1459 c0 -5 5 -7 10 -4 6 3 10 8 10 11 0 2 -4 4 -10 4 -5 0 -10
-5 -10 -11z"/>
<path d="M341 1386 c-8 -9 -11 -19 -7 -23 9 -9 29 13 24 27 -2 8 -8 7 -17 -4z"/>
<path d="M1922 1263 c2 -12 12 -18 28 -18 16 0 26 6 28 18 3 13 -3 17 -28 17
-25 0 -31 -4 -28 -17z"/>
<path d="M1090 709 c0 -18 2 -19 15 -9 15 12 12 30 -6 30 -5 0 -9 -10 -9 -21z"/>
<path d="M1149 675 c-5 -34 -29 -44 -51 -21 -10 9 -20 11 -29 5 -10 -6 -10 -9
-1 -9 18 0 15 -31 -5 -46 -15 -11 -22 -9 -48 14 l-30 27 24 -27 c24 -28 24
-28 5 -50 l-19 -22 24 17 c29 19 61 7 61 -23 0 -16 -7 -20 -30 -20 -29 0 -38
-9 -23 -23 3 -4 12 -2 19 4 8 6 21 9 29 5 8 -3 15 -2 16 2 5 44 5 53 -2 57
-10 7 0 42 16 55 19 16 55 -9 55 -38 0 -17 -7 -24 -30 -28 -38 -8 -38 -20 -1
-27 21 -4 29 -11 27 -24 -2 -10 -1 -12 1 -5 3 6 12 12 21 13 11 0 12 2 5 6
-18 7 -16 50 3 57 21 8 21 8 27 -14 3 -11 10 -20 16 -20 17 0 13 21 -6 36 -17
12 -16 14 7 41 l25 28 -31 -28 c-27 -24 -32 -26 -44 -12 -7 8 -10 24 -7 35 3
11 1 20 -3 20 -5 0 -10 10 -12 23 -4 19 -5 17 -9 -8z m11 -45 c0 -5 -2 -10 -4
-10 -3 0 -8 5 -11 10 -3 6 -1 10 4 10 6 0 11 -4 11 -10z m-80 -40 c0 -5 -4
-10 -10 -10 -5 0 -10 5 -10 10 0 6 5 10 10 10 6 0 10 -4 10 -10z m80 -50 c0
-5 -4 -10 -10 -10 -5 0 -10 5 -10 10 0 6 5 10 10 10 6 0 10 -4 10 -10z"/>
<path d="M1198 663 c7 -3 16 -2 19 1 4 3 -2 6 -13 5 -11 0 -14 -3 -6 -6z"/>
<path d="M1110 584 c0 -17 22 -14 28 4 2 7 -3 12 -12 12 -9 0 -16 -7 -16 -16z"/>
<path d="M1780 655 c-17 -20 5 -47 34 -43 27 4 27 27 0 45 -18 12 -23 11 -34
-2z"/>
<path d="M575 490 c-3 -5 -1 -10 4 -10 6 0 11 5 11 10 0 6 -2 10 -4 10 -3 0
-8 -4 -11 -10z"/>
<path d="M640 411 c0 -14 18 -23 31 -15 8 4 7 9 -2 15 -18 11 -29 11 -29 0z"/>
<path d="M1644 505 c-9 -23 3 -45 26 -45 23 0 27 29 8 48 -16 16 -27 15 -34
-3z"/>
<path d="M1260 320 c0 -5 7 -10 15 -10 8 0 15 5 15 10 0 6 -7 10 -15 10 -8 0
-15 -4 -15 -10z"/>
<path d="M975 300 c-3 -5 -1 -10 4 -10 6 0 11 5 11 10 0 6 -2 10 -4 10 -3 0
-8 -4 -11 -10z"/>
<path d="M1090 300 c0 -5 7 -10 15 -10 8 0 15 5 15 10 0 6 -7 10 -15 10 -8 0
-15 -4 -15 -10z"/>
</g>
</svg>
